<?xml version="1.0" encoding="UTF-8"?>
<!DOCTYPE svg PUBLIC "-//W3C//DTD SVG 1.1//EN" "http://www.w3.org/Graphics/SVG/1.1/DTD/svg11.dtd">
<!-- Creator: CorelDRAW -->
<svg xmlns="http://www.w3.org/2000/svg" xml:space="preserve" width="11in" height="8.5in" style="shape-rendering:geometricPrecision; text-rendering:geometricPrecision; image-rendering:optimizeQuality; fill-rule:evenodd; clip-rule:evenodd"
viewBox="0 0 11 8.5"
 xmlns:xlink="http://www.w3.org/1999/xlink">
 <defs>
  <style type="text/css">
   <![CDATA[
    .str0 {stroke:#1F1A17;stroke-width:0.003}
    .str4 {stroke:#838281;stroke-width:0.003}
    .str1 {stroke:#70614E;stroke-width:0.00694488}
    .str3 {stroke:#71625B;stroke-width:0.00694488}
    .str2 {stroke:#97946B;stroke-width:0.00694488}
    .fil6 {fill:none}
    .fil1 {fill:#00923F}
    .fil7 {fill:#28166F}
    .fil35 {fill:#605D5C}
    .fil8 {fill:#71625B}
    .fil11 {fill:#97946B}
    .fil4 {fill:#C0A062}
    .fil3 {fill:#FFF500}
    .fil12 {fill:url(#id66)}
    .fil10 {fill:url(#id67)}
    .fil9 {fill:url(#id68)}
    .fil14 {fill:url(#id69)}
    .fil41 {fill:url(#id70)}
    .fil39 {fill:url(#id71)}
    .fil0 {fill:url(#id72)}
    .fil36 {fill:url(#id73)}
    .fil37 {fill:url(#id74)}
    .fil38 {fill:url(#id75)}
    .fil33 {fill:url(#id76)}
    .fil32 {fill:url(#id77)}
    .fil31 {fill:url(#id78)}
    .fil30 {fill:url(#id79)}
    .fil29 {fill:url(#id80)}
    .fil13 {fill:url(#id81)}
    .fil34 {fill:url(#id82)}
    .fil40 {fill:url(#id83)}
    .fil42 {fill:url(#id84)}
    .fil19 {fill:url(#id85)}
    .fil21 {fill:url(#id86)}
    .fil20 {fill:url(#id87)}
    .fil18 {fill:url(#id88)}
    .fil23 {fill:url(#id89)}
    .fil22 {fill:url(#id90)}
    .fil17 {fill:url(#id91)}
    .fil16 {fill:url(#id92)}
    .fil15 {fill:url(#id93)}
    .fil43 {fill:url(#id94)}
    .fil45 {fill:url(#id95)}
    .fil44 {fill:url(#id96)}
    .fil28 {fill:url(#id97)}
    .fil27 {fill:url(#id98)}
    .fil26 {fill:url(#id99)}
    .fil25 {fill:url(#id100)}
    .fil24 {fill:url(#id101)}
    .fil2 {fill:url(#id102)}
    .fil5 {fill:url(#id103)}
   ]]>
  </style>
    <mask id="id0">
  <linearGradient id="id1" gradientUnits="userSpaceOnUse" x1="2.59319" y1="2.93822" x2="2.33682" y2="2.96612">
   <stop offset="0" style="stop-opacity:1; stop-color:white"/>
   <stop offset="1" style="stop-opacity:0; stop-color:white"/>
  </linearGradient>
     <rect style="fill:url(#id1)" x="2.25943" y="2.77103" width="0.411154" height="0.362283"/>
    </mask>
    <mask id="id2">
  <linearGradient id="id3" gradientUnits="userSpaceOnUse" x1="2.52674" y1="2.82404" x2="2.24478" y2="2.85471">
   <stop offset="0" style="stop-opacity:1; stop-color:white"/>
   <stop offset="1" style="stop-opacity:0; stop-color:white"/>
  </linearGradient>
     <rect style="fill:url(#id3)" x="2.19164" y="2.68026" width="0.38824" height="0.318236"/>
    </mask>
    <mask id="id4">
  <linearGradient id="id5" gradientUnits="userSpaceOnUse" x1="2.37321" y1="3.08886" x2="2.10442" y2="3.10807">
   <stop offset="0" style="stop-opacity:1; stop-color:white"/>
   <stop offset="1" style="stop-opacity:0; stop-color:white"/>
  </linearGradient>
     <rect style="fill:url(#id5)" x="2.05517" y="2.94531" width="0.367283" height="0.306299"/>
    </mask>
   <mask id="id6">
  <linearGradient id="id7" gradientUnits="userSpaceOnUse" x1="1.62728" y1="1.50244" x2="1.42981" y2="1.57543">
   <stop offset="0" style="stop-opacity:1; stop-color:white"/>
   <stop offset="1" style="stop-opacity:0; stop-color:white"/>
  </linearGradient>
    <rect style="fill:url(#id7)" x="1.33378" y="1.45305" width="0.389528" height="0.171768"/>
   </mask>
   <mask id="id8">
  <linearGradient id="id9" gradientUnits="userSpaceOnUse" x1="1.54374" y1="1.46925" x2="1.31235" y2="1.41285">
   <stop offset="0" style="stop-opacity:1; stop-color:white"/>
   <stop offset="1" style="stop-opacity:0; stop-color:white"/>
  </linearGradient>
    <rect style="fill:url(#id9)" x="1.23515" y="1.3867" width="0.385803" height="0.108685"/>
   </mask>
   <mask id="id10">
  <linearGradient id="id11" gradientUnits="userSpaceOnUse" x1="1.90448" y1="1.37067" x2="1.61435" y2="1.4779">
   <stop offset="0" style="stop-opacity:1; stop-color:white"/>
   <stop offset="1" style="stop-opacity:0; stop-color:white"/>
  </linearGradient>
    <rect style="fill:url(#id11)" x="1.50042" y="1.35033" width="0.517992" height="0.147913"/>
   </mask>
   <mask id="id12">
  <linearGradient id="id13" gradientUnits="userSpaceOnUse" x1="2.26962" y1="1.53796" x2="2.00292" y2="1.49048">
   <stop offset="0" style="stop-opacity:1; stop-color:white"/>
   <stop offset="1" style="stop-opacity:0; stop-color:white"/>
  </linearGradient>
    <rect style="fill:url(#id13)" x="1.95446" y="1.38903" width="0.363602" height="0.250366"/>
   </mask>
   <mask id="id14">
  <linearGradient id="id15" gradientUnits="userSpaceOnUse" x1="1.28389" y1="1.58483" x2="1.16965" y2="1.6902">
   <stop offset="0" style="stop-opacity:1; stop-color:white"/>
   <stop offset="1" style="stop-opacity:0; stop-color:white"/>
  </linearGradient>
    <rect style="fill:url(#id15)" x="1.01739" y="1.54302" width="0.418764" height="0.189"/>
   </mask>
   <mask id="id16">
  <linearGradient id="id17" gradientUnits="userSpaceOnUse" x1="1.2425" y1="1.47069" x2="1.20726" y2="1.60807">
   <stop offset="0" style="stop-opacity:1; stop-color:white"/>
   <stop offset="1" style="stop-opacity:0; stop-color:white"/>
  </linearGradient>
    <rect style="fill:url(#id17)" x="1.08075" y="1.48061" width="0.288268" height="0.117539"/>
   </mask>
   <mask id="id18">
  <linearGradient id="id19" gradientUnits="userSpaceOnUse" x1="1.05213" y1="1.6899" x2="1.07669" y2="1.84235">
   <stop offset="0" style="stop-opacity:1; stop-color:white"/>
   <stop offset="1" style="stop-opacity:0; stop-color:white"/>
  </linearGradient>
    <rect style="fill:url(#id19)" x="0.946772" y="1.66833" width="0.235276" height="0.195591"/>
   </mask>
   <mask id="id20">
  <linearGradient id="id21" gradientUnits="userSpaceOnUse" x1="0.989685" y1="1.67994" x2="1.01205" y2="1.8187">
   <stop offset="0" style="stop-opacity:1; stop-color:white"/>
   <stop offset="1" style="stop-opacity:0; stop-color:white"/>
  </linearGradient>
    <rect style="fill:url(#id21)" x="0.90428" y="1.65847" width="0.193173" height="0.181709"/>
   </mask>
    <mask id="id22">
  <linearGradient id="id23" gradientUnits="userSpaceOnUse" x1="1.85206" y1="2.789" x2="1.67024" y2="2.7074">
   <stop offset="0" style="stop-opacity:1; stop-color:white"/>
   <stop offset="1" style="stop-opacity:0; stop-color:white"/>
  </linearGradient>
     <rect style="fill:url(#id23)" x="1.58096" y="2.65813" width="0.360386" height="0.180142"/>
    </mask>
    <mask id="id24">
  <linearGradient id="id25" gradientUnits="userSpaceOnUse" x1="2.09706" y1="2.97501" x2="1.8076" y2="2.8451">
   <stop offset="0" style="stop-opacity:1; stop-color:white"/>
   <stop offset="1" style="stop-opacity:0; stop-color:white"/>
  </linearGradient>
     <rect style="fill:url(#id25)" x="1.68319" y="2.81306" width="0.538283" height="0.193988"/>
    </mask>
    <mask id="id26">
  <linearGradient id="id27" gradientUnits="userSpaceOnUse" x1="2.26748" y1="3.03154" x2="1.98922" y2="2.97112">
   <stop offset="0" style="stop-opacity:1; stop-color:white"/>
   <stop offset="1" style="stop-opacity:0; stop-color:white"/>
  </linearGradient>
     <rect style="fill:url(#id27)" x="1.93382" y="2.90211" width="0.389063" height="0.198437"/>
    </mask>
    <mask id="id28">
  <linearGradient id="id29" gradientUnits="userSpaceOnUse" x1="2.37321" y1="3.08886" x2="2.10442" y2="3.10807">
   <stop offset="0" style="stop-opacity:1; stop-color:white"/>
   <stop offset="1" style="stop-opacity:0; stop-color:white"/>
  </linearGradient>
     <rect style="fill:url(#id29)" x="2.05517" y="2.94531" width="0.367283" height="0.306299"/>
    </mask>
    <mask id="id30">
  <linearGradient id="id31" gradientUnits="userSpaceOnUse" x1="2.08778" y1="3.20011" x2="1.77498" y2="3.12301">
   <stop offset="0" style="stop-opacity:1; stop-color:white"/>
   <stop offset="1" style="stop-opacity:0; stop-color:white"/>
  </linearGradient>
     <rect style="fill:url(#id31)" x="1.66837" y="3.06058" width="0.526031" height="0.201957"/>
    </mask>
    <mask id="id32">
  <linearGradient id="id33" gradientUnits="userSpaceOnUse" x1="1.87088" y1="3.30753" x2="1.71153" y2="3.21037">
   <stop offset="0" style="stop-opacity:1; stop-color:white"/>
   <stop offset="1" style="stop-opacity:0; stop-color:white"/>
  </linearGradient>
     <rect style="fill:url(#id33)" x="1.56629" y="3.21647" width="0.449835" height="0.0849606"/>
    </mask>
    <mask id="id34">
  <linearGradient id="id35" gradientUnits="userSpaceOnUse" x1="1.79196" y1="3.13089" x2="1.66768" y2="2.9644">
   <stop offset="0" style="stop-opacity:1; stop-color:white"/>
   <stop offset="1" style="stop-opacity:0; stop-color:white"/>
  </linearGradient>
     <rect style="fill:url(#id35)" x="1.45835" y="2.95304" width="0.542937" height="0.18922"/>
    </mask>
    <mask id="id36">
  <linearGradient id="id37" gradientUnits="userSpaceOnUse" x1="1.57346" y1="3.23238" x2="1.4791" y2="3.06242">
   <stop offset="0" style="stop-opacity:1; stop-color:white"/>
   <stop offset="1" style="stop-opacity:0; stop-color:white"/>
  </linearGradient>
     <rect style="fill:url(#id37)" x="1.26522" y="3.04831" width="0.522106" height="0.198165"/>
    </mask>
    <mask id="id38">
  <linearGradient id="id39" gradientUnits="userSpaceOnUse" x1="1.65994" y1="2.93565" x2="1.54231" y2="2.8122">
   <stop offset="0" style="stop-opacity:1; stop-color:white"/>
   <stop offset="1" style="stop-opacity:0; stop-color:white"/>
  </linearGradient>
     <rect style="fill:url(#id39)" x="1.43509" y="2.8111" width="0.332055" height="0.125634"/>
    </mask>
    <mask id="id40">
  <linearGradient id="id41" gradientUnits="userSpaceOnUse" x1="1.50035" y1="3.02057" x2="1.40356" y2="2.89472">
   <stop offset="0" style="stop-opacity:1; stop-color:white"/>
   <stop offset="1" style="stop-opacity:0; stop-color:white"/>
  </linearGradient>
     <rect style="fill:url(#id41)" x="1.28643" y="2.90346" width="0.331043" height="0.108378"/>
    </mask>
    <mask id="id42">
  <linearGradient id="id43" gradientUnits="userSpaceOnUse" x1="1.36223" y1="3.06572" x2="1.27644" y2="2.95345">
   <stop offset="0" style="stop-opacity:1; stop-color:white"/>
   <stop offset="1" style="stop-opacity:0; stop-color:white"/>
  </linearGradient>
     <rect style="fill:url(#id43)" x="1.1547" y="2.95493" width="0.329268" height="0.109311"/>
    </mask>
    <mask id="id44">
  <linearGradient id="id45" gradientUnits="userSpaceOnUse" x1="1.24657" y1="3.08837" x2="1.17807" y2="2.99588">
   <stop offset="0" style="stop-opacity:1; stop-color:white"/>
   <stop offset="1" style="stop-opacity:0; stop-color:white"/>
  </linearGradient>
     <rect style="fill:url(#id45)" x="1.05" y="2.9807" width="0.324626" height="0.122831"/>
    </mask>
    <mask id="id46">
  <linearGradient id="id47" gradientUnits="userSpaceOnUse" x1="1.50941" y1="2.67296" x2="1.39348" y2="2.55051">
   <stop offset="0" style="stop-opacity:1; stop-color:white"/>
   <stop offset="1" style="stop-opacity:0; stop-color:white"/>
  </linearGradient>
     <rect style="fill:url(#id47)" x="1.26319" y="2.51059" width="0.3765" height="0.202287"/>
    </mask>
    <mask id="id48">
  <linearGradient id="id49" gradientUnits="userSpaceOnUse" x1="1.35072" y1="2.78554" x2="1.31043" y2="2.64161">
   <stop offset="0" style="stop-opacity:1; stop-color:white"/>
   <stop offset="1" style="stop-opacity:0; stop-color:white"/>
  </linearGradient>
     <rect style="fill:url(#id49)" x="1.1567" y="2.63907" width="0.347744" height="0.14902"/>
    </mask>
    <mask id="id50">
  <linearGradient id="id51" gradientUnits="userSpaceOnUse" x1="1.27102" y1="2.86901" x2="1.24593" y2="2.72041">
   <stop offset="0" style="stop-opacity:1; stop-color:white"/>
   <stop offset="1" style="stop-opacity:0; stop-color:white"/>
  </linearGradient>
     <rect style="fill:url(#id51)" x="1.11019" y="2.72246" width="0.296567" height="0.144496"/>
    </mask>
    <mask id="id52">
  <linearGradient id="id53" gradientUnits="userSpaceOnUse" x1="1.1888" y1="2.42606" x2="1.26022" y2="2.27728">
   <stop offset="0" style="stop-opacity:1; stop-color:white"/>
   <stop offset="1" style="stop-opacity:0; stop-color:white"/>
  </linearGradient>
     <rect style="fill:url(#id53)" x="1.12211" y="2.22259" width="0.204795" height="0.258173"/>
    </mask>
    <mask id="id54">
  <linearGradient id="id55" gradientUnits="userSpaceOnUse" x1="1.15853" y1="2.90043" x2="1.13678" y2="2.76915">
   <stop offset="0" style="stop-opacity:1; stop-color:white"/>
   <stop offset="1" style="stop-opacity:0; stop-color:white"/>
  </linearGradient>
     <rect style="fill:url(#id55)" x="1.00345" y="2.75156" width="0.288402" height="0.166472"/>
    </mask>
    <mask id="id56">
  <linearGradient id="id57" gradientUnits="userSpaceOnUse" x1="1.1208" y1="2.4778" x2="1.15422" y2="2.33851">
   <stop offset="0" style="stop-opacity:1; stop-color:white"/>
   <stop offset="1" style="stop-opacity:0; stop-color:white"/>
  </linearGradient>
     <rect style="fill:url(#id57)" x="1.03814" y="2.27669" width="0.198748" height="0.262921"/>
    </mask>
    <mask id="id58">
  <linearGradient id="id59" gradientUnits="userSpaceOnUse" x1="1.0775" y1="2.94032" x2="1.05572" y2="2.80889">
   <stop offset="0" style="stop-opacity:1; stop-color:white"/>
   <stop offset="1" style="stop-opacity:0; stop-color:white"/>
  </linearGradient>
     <rect style="fill:url(#id59)" x="0.925339" y="2.78373" width="0.282543" height="0.181744"/>
    </mask>
    <mask id="id60">
  <linearGradient id="id61" gradientUnits="userSpaceOnUse" x1="1.03887" y1="2.5475" x2="1.05256" y2="2.40863">
   <stop offset="0" style="stop-opacity:1; stop-color:white"/>
   <stop offset="1" style="stop-opacity:0; stop-color:white"/>
  </linearGradient>
     <rect style="fill:url(#id61)" x="0.931382" y="2.35785" width="0.228657" height="0.240425"/>
    </mask>
    <mask id="id62">
  <linearGradient id="id63" gradientUnits="userSpaceOnUse" x1="0.954724" y1="2.6176" x2="0.968409" y2="2.47874">
   <stop offset="0" style="stop-opacity:1; stop-color:white"/>
   <stop offset="1" style="stop-opacity:0; stop-color:white"/>
  </linearGradient>
     <rect style="fill:url(#id63)" x="0.84724" y="2.42798" width="0.228654" height="0.240394"/>
    </mask>
    <mask id="id64">
  <linearGradient id="id65" gradientUnits="userSpaceOnUse" x1="0.894598" y1="2.68242" x2="0.920811" y2="2.54054">
   <stop offset="0" style="stop-opacity:1; stop-color:white"/>
   <stop offset="1" style="stop-opacity:0; stop-color:white"/>
  </linearGradient>
     <rect style="fill:url(#id65)" x="0.803776" y="2.48217" width="0.207854" height="0.25861"/>
    </mask>
  <linearGradient id="id66" gradientUnits="userSpaceOnUse" x1="3.12847" y1="1.47031" x2="3.3702" y2="4.28787">
   <stop offset="0" style="stop-color:#838281"/>
   <stop offset="1" style="stop-color:#FFFCC8"/>
  </linearGradient>
  <linearGradient id="id67" gradientUnits="userSpaceOnUse" xlink:href="#id66" x1="3.16064" y1="1.46755" x2="3.40618" y2="4.32946">
  </linearGradient>
  <linearGradient id="id68" gradientUnits="userSpaceOnUse" xlink:href="#id66" x1="3.19169" y1="1.46489" x2="3.45854" y2="4.57522">
  </linearGradient>
  <linearGradient id="id69" gradientUnits="userSpaceOnUse" x1="3.34887" y1="1.36348" x2="3.41045" y2="2.08126">
   <stop offset="0" style="stop-color:#DA251D"/>
   <stop offset="1" style="stop-color:#E77817"/>
  </linearGradient>
  <linearGradient id="id70" gradientUnits="userSpaceOnUse" x1="2.98669" y1="2.15343" x2="3.452" y2="2.38637">
   <stop offset="0" style="stop-color:#EEE8C0"/>
   <stop offset="1" style="stop-color:white"/>
  </linearGradient>
  <linearGradient id="id71" gradientUnits="userSpaceOnUse" xlink:href="#id70" x1="3.30569" y1="2.18995" x2="3.81298" y2="2.42334">
  </linearGradient>
  <linearGradient id="id72" gradientUnits="userSpaceOnUse" x1="2.7493" y1="2.49114" x2="1.57381" y2="3.25885">
   <stop offset="0" style="stop-color:#EF9A48"/>
   <stop offset="0.360784" style="stop-color:#F7C724"/>
   <stop offset="1" style="stop-color:#FFF500"/>
  </linearGradient>
  <linearGradient id="id73" gradientUnits="userSpaceOnUse" xlink:href="#id70" x1="4.01446" y1="2.66098" x2="4.53634" y2="2.90108">
  </linearGradient>
  <linearGradient id="id74" gradientUnits="userSpaceOnUse" xlink:href="#id70" x1="3.65994" y1="2.22756" x2="4.16909" y2="2.46181">
  </linearGradient>
  <linearGradient id="id75" gradientUnits="userSpaceOnUse" xlink:href="#id70" x1="3.6606" y1="2.60866" x2="4.16778" y2="2.842">
  </linearGradient>
  <linearGradient id="id76" gradientUnits="userSpaceOnUse" xlink:href="#id70" x1="3.07117" y1="3.53312" x2="3.59782" y2="3.83718">
  </linearGradient>
  <linearGradient id="id77" gradientUnits="userSpaceOnUse" xlink:href="#id70" x1="2.74674" y1="3.44769" x2="3.2523" y2="3.73956">
  </linearGradient>
  <linearGradient id="id78" gradientUnits="userSpaceOnUse" xlink:href="#id70" x1="2.46324" y1="3.37313" x2="2.92727" y2="3.64103">
  </linearGradient>
  <linearGradient id="id79" gradientUnits="userSpaceOnUse" xlink:href="#id70" x1="2.16596" y1="3.2917" x2="2.63021" y2="3.55973">
  </linearGradient>
  <linearGradient id="id80" gradientUnits="userSpaceOnUse" xlink:href="#id70" x1="1.86665" y1="3.2078" x2="2.32387" y2="3.47177">
  </linearGradient>
  <linearGradient id="id81" gradientUnits="userSpaceOnUse" xlink:href="#id70" x1="1.48449" y1="2.042" x2="4.9261" y2="3.65389">
  </linearGradient>
  <linearGradient id="id82" gradientUnits="userSpaceOnUse" xlink:href="#id70" x1="4.01759" y1="2.26407" x2="4.53583" y2="2.50249">
  </linearGradient>
  <linearGradient id="id83" gradientUnits="userSpaceOnUse" xlink:href="#id70" x1="3.31573" y1="2.55824" x2="3.80224" y2="2.78206">
  </linearGradient>
  <linearGradient id="id84" gradientUnits="userSpaceOnUse" xlink:href="#id70" x1="3.00441" y1="2.50977" x2="3.43371" y2="2.72468">
  </linearGradient>
  <linearGradient id="id85" gradientUnits="userSpaceOnUse" xlink:href="#id70" x1="3.31961" y1="2.90007" x2="3.76698" y2="3.15835">
  </linearGradient>
  <linearGradient id="id86" gradientUnits="userSpaceOnUse" xlink:href="#id70" x1="4.01901" y1="3.03219" x2="4.47624" y2="3.29617">
  </linearGradient>
  <linearGradient id="id87" gradientUnits="userSpaceOnUse" xlink:href="#id70" x1="3.67642" y1="2.96629" x2="4.11122" y2="3.21731">
  </linearGradient>
  <linearGradient id="id88" gradientUnits="userSpaceOnUse" xlink:href="#id70" x1="2.98823" y1="2.84086" x2="3.39812" y2="3.0775">
  </linearGradient>
  <linearGradient id="id89" gradientUnits="userSpaceOnUse" xlink:href="#id70" x1="2.30169" y1="3.0086" x2="2.70988" y2="3.24427">
  </linearGradient>
  <linearGradient id="id90" gradientUnits="userSpaceOnUse" xlink:href="#id70" x1="1.99479" y1="2.93364" x2="2.40019" y2="3.1677">
  </linearGradient>
  <linearGradient id="id91" gradientUnits="userSpaceOnUse" xlink:href="#id70" x1="2.68446" y1="2.7809" x2="3.0744" y2="3.00603">
  </linearGradient>
  <linearGradient id="id92" gradientUnits="userSpaceOnUse" xlink:href="#id70" x1="2.37894" y1="2.72147" x2="2.75728" y2="2.9399">
  </linearGradient>
  <linearGradient id="id93" gradientUnits="userSpaceOnUse" xlink:href="#id70" x1="2.07102" y1="2.65983" x2="2.44317" y2="2.8747">
  </linearGradient>
  <linearGradient id="id94" gradientUnits="userSpaceOnUse" xlink:href="#id70" x1="2.7018" y1="2.46444" x2="3.09864" y2="2.67065">
  </linearGradient>
  <linearGradient id="id95" gradientUnits="userSpaceOnUse" xlink:href="#id70" x1="2.0815" y1="2.36996" x2="2.46928" y2="2.57148">
  </linearGradient>
  <linearGradient id="id96" gradientUnits="userSpaceOnUse" xlink:href="#id70" x1="2.39159" y1="2.41795" x2="2.78207" y2="2.62086">
  </linearGradient>
  <linearGradient id="id97" gradientUnits="userSpaceOnUse" xlink:href="#id70" x1="3.91544" y1="3.38102" x2="4.40543" y2="3.66391">
  </linearGradient>
  <linearGradient id="id98" gradientUnits="userSpaceOnUse" xlink:href="#id70" x1="3.58353" y1="3.30485" x2="4.04014" y2="3.56847">
  </linearGradient>
  <linearGradient id="id99" gradientUnits="userSpaceOnUse" xlink:href="#id70" x1="3.23861" y1="3.22296" x2="3.69624" y2="3.48718">
  </linearGradient>
  <linearGradient id="id100" gradientUnits="userSpaceOnUse" xlink:href="#id70" x1="2.90806" y1="3.14975" x2="3.34064" y2="3.3995">
  </linearGradient>
  <linearGradient id="id101" gradientUnits="userSpaceOnUse" xlink:href="#id70" x1="2.60954" y1="3.08143" x2="3.01303" y2="3.31439">
  </linearGradient>
  <radialGradient id="id102" gradientUnits="userSpaceOnUse" cx="1.35059" cy="1.88565" r="0.83272" fx="1.35059" fy="1.88565">
   <stop offset="0" style="stop-color:#FFF500"/>
   <stop offset="1" style="stop-color:#EF9A48"/>
  </radialGradient>
  <radialGradient id="id103" gradientUnits="userSpaceOnUse" cx="1.89978" cy="2.63846" r="0.788583" fx="1.89978" fy="2.63846">
   <stop offset="0" style="stop-color:#FFF500"/>
   <stop offset="0.639216" style="stop-color:#F7C724"/>
   <stop offset="1" style="stop-color:#EF9A48"/>
  </radialGradient>
 </defs>
 <g id="Sunbird" visibility="hidden">
  <metadata id="CorelCorpID_0Corel-Layer"/>
  <g id="_158768536">
   <path id="_158914936" class="fil0 str0" d="M2.77427 2.47929c-0.226516,0.319969 -0.639504,0.45376 -1.01358,0.341004l-0.214512 0.449713c0.53187,0.135976 1.07657,-0.186917 1.21255,-0.718787 0.00637402,-0.0249291 0.0111575,-0.0469764 0.0155433,-0.0719291z"/>
   <path id="_158733264" class="fil1" style="mask:url(#id0)" d="M2.66909 2.77254c-0.0989213,0.147209 -0.138429,0.235677 -0.320083,0.359283l-0.0880709 -0.169209c0.175398,-0.0544331 0.281992,-0.0875236 0.408154,-0.190075z"/>
   <path id="_33596952" class="fil1" style="mask:url(#id2)" d="M2.57837 2.68175c-0.0810591,0.178276 -0.126307,0.217358 -0.335157,0.31524l-0.0500748 -0.149799c0.18024,-0.0462638 0.250268,-0.0609843 0.385232,-0.165441z"/>
   <path id="_158768376" class="fil1" style="mask:url(#id4)" d="M2.42095 2.9468c-0.0845354,0.16902 -0.122047,0.216386 -0.326941,0.303315l-0.0373268 -0.133402c0.171087,-0.0462205 0.239591,-0.0685866 0.364268,-0.169913z"/>
  </g>
  <path class="fil2 str0" d="M0.815264 2.4918c0.0181339,0.0882165 0.0440472,0.172276 0.0813228,0.249882l0.269839 -0.804862c0.0604173,-0.164508 0.103976,-0.23652 0.236594,-0.297244 0.119185,-0.0545787 0.228319,-0.0965315 0.320571,-0.0819724 -0.0246024,-0.0355276 -0.0206417,-0.0208386 -0.0512008,-0.0435 0.424205,-0.0320906 0.645339,0.10722 0.808957,0.250681 -0.148839,-0.357118 -0.738677,-0.488146 -1.06659,-0.375114 -0.354185,0.122087 -0.589272,0.434764 -0.618606,0.807528l-0.00561417 0.0906654c0.00557874,0.0685276 0.0108465,0.13639 0.0247244,0.203937z"/>
  <path class="fil3 str0" d="M0.865354 2.13465c0.0344803,-0.111441 0.0836378,-0.237898 0.162106,-0.324213 0.064,-0.0704016 0.124343,-0.0916811 0.217913,-0.108957 0.0530197,-0.0097874 0.164488,0.00706299 0.207283,0.0398622 0.0579488,0.0444055 0.0850394,0.118701 0.127559,0.178051l-0.0132874 0.0478346c-0.0301181,0.0186024 -0.0551496,0.0286181 -0.0876969,0.0425197 -0.029874,0.0127598 -0.063122,0.0128543 -0.0946732,0.0205984 -0.0189252,0.00464173 -0.0445669,0.0173228 -0.0594606,0.0298937 -0.174902,0.147618 -0.338386,0.308268 -0.507579,0.462402 -0.0318898,-0.223228 0.00932677,-0.263524 0.0478346,-0.387992z"/>
  <path class="fil1" style="mask:url(#id6)" d="M1.72181 1.55479c-0.0510709,-0.0556811 -0.0498543,-0.0370236 -0.135827,-0.0707323 -0.0454409,-0.017811 -0.190937,-0.0389055 -0.250701,-0.0250118l0.105142 0.164272c0.12387,-0.0481693 0.143,-0.0736457 0.281386,-0.0685276z"/>
  <path class="fil1" style="mask:url(#id8)" d="M1.61945 1.49389c-0.00945276,-0.0606772 -0.117378,-0.104051 -0.198945,-0.105685 -0.0690709,0.0216772 -0.119795,0.0481732 -0.183858,0.0836929l0.0863465 -0.00668898c0.124992,-0.0219331 0.197429,0.00624016 0.296457,0.0286811z"/>
  <path class="fil1" style="mask:url(#id10)" d="M2.01692 1.49675c-0.181535,-0.147295 -0.254114,-0.163417 -0.515004,-0.130799l0.0179803 0.126209c0.216374,-0.035252 0.305323,-0.0431732 0.497024,0.00459055z"/>
  <path class="fil1" style="mask:url(#id12)" d="M2.31657 1.63791c-0.0193465,-0.0515669 -0.0384331,-0.0883071 -0.0577441,-0.122217 -0.0901772,-0.0562756 -0.18278,-0.0965591 -0.278941,-0.125177l-0.0239213 0.0908189c0.174862,0.0484567 0.241236,0.0765472 0.360606,0.156575z"/>
  <path class="fil1" style="mask:url(#id14)" d="M1.43465 1.57731c-0.0558425,-0.0592677 -0.200303,-0.0265748 -0.2945,0.00699213l-0.121256 0.073185 0.184028 0.0730197c0.0501496,-0.0861811 0.121524,-0.128126 0.231728,-0.153197z"/>
  <path class="fil1" style="mask:url(#id16)" d="M1.36752 1.50678c-0.0560197,-0.0385709 -0.107665,-0.0206969 -0.151579,-0.0195945 -0.0262205,0.0179921 -0.158469,0.117846 -0.129598,0.108945 0.0418228,-0.0128976 0.121638,-0.0415748 0.186366,-0.0389252 0.0234606,-0.0110787 0.0715394,-0.0454724 0.094811,-0.0504252z"/>
  <path class="fil1" style="mask:url(#id18)" d="M1.18055 1.66982c-0.152945,0.0148268 -0.16122,0.0646339 -0.232268,0.177484l0.10413 0.015126c0.0273465,-0.0895748 0.063874,-0.156346 0.128138,-0.19261z"/>
  <path class="fil1" style="mask:url(#id20)" d="M1.09594 1.65997c-0.0443425,0.00429528 -0.0755827,0.0117717 -0.0995827,0.0232008 -0.0237795,0.0395748 -0.0597559,0.0806811 -0.0905866,0.147791l0.0712795 0.00771654c0.0253701,-0.0831102 0.0592598,-0.145063 0.11889,-0.178709z"/>
  <path class="fil4 str0" d="M1.18791 2.04444c0.0232638,0.000622047 0.0478661,0.0214134 0.0489134,0.0460433 0.00818898,0.19215 0.0591339,0.321484 0.142154,0.437189 -0.131622,-0.0840591 -0.197374,-0.242807 -0.191067,-0.483232z"/>
  <path class="fil5" d="M2.08053 2.85827c-0.10635,0.00594882 -0.214638,-0.00626378 -0.319846,-0.0379724 0.0605157,-0.0232992 0.13152,-0.0843031 0.182323,-0.150496 -0.434209,0.0792165 -0.727181,-0.215925 -0.743264,-0.520941 -0.0054252,-0.0575157 0.0230236,-0.0875079 0.0232441,-0.0877874 -0.017248,-0.0240433 -0.0576732,-0.0169134 -0.0801929,-0.0063189 -0.152236,0.0716024 -0.279122,0.249953 -0.321728,0.46876 0.0804724,0.353205 0.35113,0.650886 0.725106,0.746496 0.349035,0.0892362 0.703606,-0.0191496 0.944559,-0.254531l-0.410201 -0.157209z"/>
  <g id="_33747568">
   <path id="_158783464" class="fil1" style="mask:url(#id22)" d="M1.93985 2.67265c-0.136126,0.148713 -0.181685,0.164232 -0.357394,0.16413l0.0348386 -0.17715c0.124598,0.0327717 0.188177,0.0276772 0.322555,0.0130197z"/>
   <path id="_33738720" class="fil1" style="mask:url(#id24)" d="M2.21998 2.84274c-0.191098,0.134661 -0.261122,0.181587 -0.535287,0.156311l0.0388622 -0.184496c0.213488,0.0498307 0.301232,0.0655787 0.496425,0.028185z"/>
   <path id="_33844792" class="fil1" style="mask:url(#id26)" d="M2.32139 2.94447c-0.0965079,0.0907126 -0.180882,0.130654 -0.385984,0.154575l-7.87402e-005 -0.188543c0.109587,0.00233465 0.186657,0.00281496 0.25924,-0.0068937l0.126823 0.0408622z"/>
   <path id="_33591920" class="fil1" style="mask:url(#id28)" d="M2.42095 2.9468c-0.0845354,0.16902 -0.122047,0.216386 -0.326941,0.303315l-0.0373268 -0.133402c0.171087,-0.0462205 0.239591,-0.0685866 0.364268,-0.169913z"/>
   <path id="_158913048" class="fil1" style="mask:url(#id30)" d="M2.19289 3.06207c-0.181169,0.147748 -0.247752,0.204539 -0.523016,0.198579l0.0258071 -0.186772c0.216465,0.0347165 0.305122,0.0392008 0.497209,-0.0118071z"/>
   <path id="_33625016" class="fil1" style="mask:url(#id32)" d="M2.01463 3.21798c-0.0439685,0.0530591 -0.0634764,0.0587559 -0.106201,0.0779291 -0.108295,0.00700787 -0.194713,0.00801181 -0.340638,-0.023126 0.0233504,-0.0026063 0.0681575,-0.018 0.0914961,-0.0205984 0.0672008,-0.00749606 0.0653661,0.00809449 0.132571,0.000602362 0.069878,-0.0077874 0.114303,0.0048189 0.222772,-0.0348071z"/>
   <path id="_158763432" class="fil1" style="mask:url(#id34)" d="M1.99978 3.02191c-0.196717,0.108197 -0.268677,0.145614 -0.539941,0.0994488l0.0478898 -0.166831c0.209717,0.0637402 0.296146,0.0855748 0.492051,0.0673819z"/>
   <path id="_158790040" class="fil1" style="mask:url(#id36)" d="M1.78581 3.18165c-0.125827,0.0476181 -0.20413,0.0705354 -0.30935,0.0613346 -0.0631417,-0.00551969 -0.124024,-0.0530157 -0.209748,-0.100878l0.0402953 -0.0922913c0.200323,0.087122 0.283354,0.119114 0.478803,0.131835z"/>
   <path id="_158958672" class="fil1" style="mask:url(#id38)" d="M1.76564 2.81261c-0.084189,0.131189 -0.155429,0.132299 -0.329051,0.114654l0.106843 -0.105059c0.110579,0.0131654 0.161594,0.00919291 0.222209,-0.00959449z"/>
   <path id="_158980552" class="fil1" style="mask:url(#id40)" d="M1.61597 2.93009c-0.0929882,0.103693 -0.157484,0.0898346 -0.328035,0.0530197l0.11348 -0.0781654c0.099378,0.0280984 0.154992,0.0268858 0.214555,0.0251457z"/>
   <path id="_33496464" class="fil1" style="mask:url(#id42)" d="M1.48248 3.00845c-0.106236,0.090063 -0.164504,0.0549488 -0.32628,-0.0102559l0.110311 -0.0417717c0.11415,0.0536102 0.155232,0.0474606 0.215969,0.0520276z"/>
   <path id="_33497832" class="fil1" style="mask:url(#id44)" d="M1.37313 3.06402c-0.117823,0.0742756 -0.170587,0.0313346 -0.321618,-0.0559173l0.115079 -0.0258858c0.105504,0.0690906 0.147043,0.0687638 0.206539,0.0818031z"/>
   <path id="_158728544" class="fil1" style="mask:url(#id46)" d="M1.6382 2.66591c-0.189988,0.0674606 -0.218366,0.0598937 -0.373484,-0.0226339l0.0988228 -0.131173c0.102004,0.0940748 0.154673,0.119496 0.274661,0.153807z"/>
   <path id="_33653512" class="fil1" style="mask:url(#id48)" d="M1.50295 2.74049c-0.135898,0.0763504 -0.217035,0.0569567 -0.34476,-0.0516299l0.140295 -0.0483031c0.0914764,0.0635118 0.142122,0.0880827 0.204465,0.0999331z"/>
   <path id="_158983976" class="fil1" style="mask:url(#id50)" d="M1.40525 2.8308c-0.14474,0.0651299 -0.169591,0.037563 -0.293551,-0.0741614l0.0974016 -0.0326575c0.0745787,0.0714331 0.142736,0.0804134 0.19615,0.106819z"/>
   <path id="_158965880" class="fil1" style="mask:url(#id52)" d="M1.32541 2.47926c-0.155803,-0.0302717 -0.164972,-0.0923898 -0.201803,-0.255154l0.103177 0.0547598c0.0197244,0.10137 0.0702244,0.148016 0.098626,0.200394z"/>
   <path id="_158960464" class="fil1" style="mask:url(#id54)" d="M1.29034 2.90087c-0.135413,0.0458307 -0.188528,-0.0102756 -0.285394,-0.147811l0.118665 0.00841732c0.0756535,0.100902 0.115232,0.106862 0.166728,0.139394z"/>
   <path id="_158986648" class="fil1" style="mask:url(#id56)" d="M1.23537 2.53809c-0.142571,-0.0104646 -0.160024,-0.0955079 -0.195744,-0.259894l0.0963898 0.0666181c0.030437,0.122382 0.0645748,0.143276 0.0993543,0.193276z"/>
   <path id="_158934720" class="fil1" style="mask:url(#id58)" d="M1.20637 2.95598c-0.136079,0.029689 -0.171087,-0.0222795 -0.279531,-0.170756l0.117016 0.0148701c0.0658583,0.107976 0.11102,0.123354 0.162516,0.155886z"/>
   <path id="_160987432" class="fil1" style="mask:url(#id60)" d="M1.15854 2.59678c-0.139122,-0.00662992 -0.159449,-0.0659016 -0.225661,-0.237425l0.10915 0.0447126c0.0355906,0.121366 0.0752205,0.147937 0.116512,0.192713z"/>
   <path id="_33523344" class="fil1" style="mask:url(#id62)" d="M1.0744 2.66688c-0.139118,-0.00662992 -0.159449,-0.0659016 -0.225661,-0.237425l0.109154 0.0447126c0.0355906,0.121366 0.0752165,0.147937 0.116508,0.192713z"/>
   <path id="_159017560" class="fil1" style="mask:url(#id64)" d="M1.01011 2.73928c-0.138063,-0.0183307 -0.153327,-0.0791063 -0.204839,-0.255602l0.104992 0.0537559c0.0252323,0.123933 0.0624764,0.153752 0.0998465,0.201846z"/>
  </g>
  <path class="fil6 str0" d="M2.08053 2.85827c-0.10635,0.00594882 -0.214638,-0.00626378 -0.319846,-0.0379724 0.0605157,-0.0232992 0.13152,-0.0843031 0.182323,-0.150496 -0.434209,0.0792165 -0.727181,-0.215925 -0.743264,-0.520941 -0.0054252,-0.0575157 0.0230236,-0.0875079 0.0232441,-0.0877874 -0.017248,-0.0240433 -0.0576732,-0.0169134 -0.0801929,-0.0063189 -0.152236,0.0716024 -0.279122,0.249953 -0.321728,0.46876 0.0804724,0.353205 0.35113,0.650886 0.725106,0.746496 0.349035,0.0892362 0.703606,-0.0191496 0.944559,-0.254531"/>
  <ellipse class="fil7 str0" cx="1.4779" cy="1.86624" rx="0.0305591" ry="0.0292323"/>
  <path class="fil8 str0" d="M1.58022 1.92205c0.148642,0.0925748 0.247398,0.174067 0.332185,0.252461 -0.116933,-0.0779685 -0.233866,-0.149728 -0.350787,-0.199311l0.0186024 -0.0531496z"/>
 </g>
 <g id="New_x0020_Bird">
  <metadata id="CorelCorpID_1Corel-Layer"/>
  <path class="fil9 str1" d="M4.17934 4.51339c0.486819,-0.400394 0.703307,-0.978823 0.700638,-1.54392l-0.00662205 -1.40234 -2.87332 0 0.00107087 1.12007c-0.0321693,0.339945 -0.140295,0.684 -0.295189,0.95885l2.47342 0.867339z"/>
  <path class="fil10 str1" d="M4.63008 3.82304c0.130193,-0.271366 0.193465,-0.568516 0.189705,-0.864457l0.000145669 -1.39145 -2.81989 0 -0.000374016 1.05383c-0.0315433,0.344685 -0.146028,0.698736 -0.306449,0.983402 0.607957,0.207705 1.21591,0.415413 1.82385,0.623118 0.187776,0.0641535 0.395217,0.0549921 0.594484,0.0414764 0.218272,-0.0891024 0.422193,-0.245102 0.518524,-0.445917z"/>
  <path class="fil11 str2" d="M3.59958 4.19211c0.11378,0.0276457 0.335244,-0.00609449 0.455,-0.0695906 0.167984,-0.00520472 0.258661,-0.0609528 0.353898,-0.115354 -0.0528189,0.0578583 -0.147189,0.111488 -0.201441,0.122756l-0.311118 0.0781417c-0.0774252,0.0144016 -0.221945,-0.00076378 -0.296339,-0.0159528z"/>
  <path class="fil12 str3" d="M4.58075 3.7691c0.118177,-0.258331 0.177055,-0.536563 0.17565,-0.813185l0.00288583 -1.38879 -2.75925 -3.93701e-006 -0.00761024 1.05989c-0.0350709,0.325173 -0.149252,0.656516 -0.306906,0.936276l1.62537 0.550803c0.300146,0.101717 0.459496,0.139445 0.743693,0.00842126 0.25915,-0.00647638 0.412626,-0.105287 0.526165,-0.353413z"/>
  <path class="fil11 str2" d="M3.53399 4.12928c0.225598,0.0348346 0.373323,-0.0469055 0.489449,-0.144469 0.162555,0.0404567 0.275732,-0.0232874 0.408358,-0.132732 -0.0631929,0.0974213 -0.214402,0.192335 -0.271382,0.204169l-0.293965 0.0762835c-0.0813189,0.0247677 -0.252398,0.0204173 -0.332461,-0.00325197z"/>
  <path class="fil13 str3" d="M4.52069 3.70847c0.107886,-0.247307 0.163795,-0.504732 0.16735,-0.757315l-0.00352756 -1.38857 -2.72225 -0.000933071 0.00335433 1.01589c-0.0218583,0.316783 -0.120457,0.640736 -0.291937,0.945035l1.65133 0.551083c0.267677,0.0893346 0.464213,0.117118 0.697665,-0.0900591 0.228906,0.0520945 0.409323,-0.0718898 0.498012,-0.27513z"/>
  <path class="fil6 str4" d="M3.97005 4.02648c-0.0585866,0.000141732 -0.158315,-0.0113583 -0.218642,-0.0292756l-1.87081 -0.555772c0.093874,-0.186043 0.15598,-0.379894 0.201244,-0.572445 0.020937,-0.0890551 0.032937,-0.181409 0.0348228,-0.274858l0.00103543 -0.591846 2.34159 0.187157 -0.00373228 0.816472c-0.0192677,0.242984 -0.0827323,0.490831 -0.187366,0.728217 -0.0378465,0.0858819 -0.0978189,0.203343 -0.194819,0.25826"/>
  <path class="fil14 str3" d="M4.68555 1.97186l-0.00102362 -0.404732c-0.000173228,-0.0394843 0.0272441,-0.0975039 0.0985472,-0.097378l-2.74079 0.00983858c-0.0545512,0.000665354 -0.0791181,0.0426496 -0.0791142,0.0875394l-4.72441e-005 0.255087 2.72243 0.149646z"/>
  <path class="fil15 str4" d="M2.11672 2.59331c-0.000858268,0.0918661 -0.0160157,0.176291 -0.0348661,0.275677l0.311047 0.0722283c0.0178661,-0.0712047 0.0394488,-0.161331 0.0394016,-0.292449l-0.315583 -0.0554567z"/>
  <path class="fil16 str4" d="M2.4323 2.64877c4.72441e-005,0.13063 -0.0156142,0.198504 -0.0394016,0.292449l0.307402 0.0713858c0.0238346,-0.098811 0.0415906,-0.177921 0.0430315,-0.309173l-0.311031 -0.0546614z"/>
  <path class="fil17 str4" d="M2.74333 2.70343c-0.00144094,0.129488 -0.0257717,0.209945 -0.0430315,0.309173l0.305244 0.0708898c0.0238346,-0.098811 0.0428898,-0.19922 0.0530236,-0.324661l-0.315236 -0.0554016z"/>
  <path class="fil18 str4" d="M3.0554 2.75828c0,0.132394 -0.0325984,0.225984 -0.0498583,0.325213l0.329764 0.0765827c0.0247402,-0.0987559 0.0412835,-0.216189 0.0455039,-0.344598l-0.325409 -0.0571969z"/>
  <path class="fil19 str4" d="M3.38081 2.81547c7.87402e-006,0.120772 -0.0282441,0.245378 -0.0455039,0.344606l0.35689 0.082874c0.0247402,-0.0987559 0.0576929,-0.228165 0.0590787,-0.362386l-0.370465 -0.0650945z"/>
  <path class="fil20 str4" d="M3.73491 2.87769c-0.0093622,0.119063 -0.0158819,0.251843 -0.0395354,0.351701l0.342709 0.0765433c0.0247402,-0.0987559 0.0499764,-0.237024 0.0541969,-0.365433l-0.35737 -0.062811z"/>
  <path class="fil21 str4" d="M4.09228 2.9405c-0.00109449,0.137953 -0.0305433,0.265575 -0.0541969,0.365433l0.368535 0.0819449c0.0247402,-0.0987559 0.0505512,-0.240598 0.0489528,-0.383535l-0.363291 -0.0638425z"/>
  <path class="fil22 str4" d="M2.08185 2.86899c-0.0196378,0.0959764 -0.0510551,0.192047 -0.0797638,0.280961l0.308276 0.0824016c0.031126,-0.0936929 0.0574094,-0.171717 0.0825354,-0.291134l-0.311047 -0.0722283z"/>
  <path class="fil23 str4" d="M2.3929 2.94122c-0.0225039,0.0958583 -0.0538268,0.20222 -0.0825354,0.291134l0.305276 0.0792913c0.031126,-0.0936929 0.0604567,-0.18489 0.0855827,-0.304307l-0.308323 -0.0661181z"/>
  <path class="fil24 str4" d="M2.70122 3.00734c-0.0196378,0.0959764 -0.056874,0.215394 -0.0855827,0.304307l0.295882 0.0768425c0.0342362,-0.0926299 0.0702835,-0.193449 0.0954094,-0.312866l-0.305709 -0.0682835z"/>
  <path class="fil25 str4" d="M3.00693 3.07562c-0.0196378,0.0959764 -0.0627323,0.224535 -0.0954094,0.312866l0.32778 0.0851339c0.0345354,-0.0936457 0.0727559,-0.204819 0.0978819,-0.324236l-0.330252 -0.0737638z"/>
  <path class="fil26 str4" d="M3.33718 3.14939c-0.0196378,0.0959764 -0.0650157,0.235417 -0.0976929,0.323748l0.347898 0.087622c0.0369291,-0.0945906 0.0828583,-0.210984 0.107984,-0.33137l-0.358189 -0.08z"/>
  <path class="fil27 str4" d="M3.69537 3.22939c-0.0196378,0.0959764 -0.0770945,0.242583 -0.109772,0.330913l0.328661 0.0836457c0.0427402,-0.087811 0.0986929,-0.21763 0.123819,-0.338016l-0.342709 -0.0765433z"/>
  <path class="fil28 str4" d="M4.03808 3.30593c-0.0196378,0.0959764 -0.0899606,0.252693 -0.123819,0.338016l0.351646 0.095063c0.0427402,-0.087811 0.108047,-0.233803 0.140709,-0.351134l-0.368535 -0.0819449z"/>
  <path class="fil29 str4" d="M2.00209 3.14995c-0.0293307,0.0869764 -0.0819134,0.209283 -0.121488,0.291488l0.299945 0.088189c0.0530866,-0.0935512 0.101244,-0.188402 0.129378,-0.297394l-0.307835 -0.0822835z"/>
  <path class="fil30 str4" d="M2.30992 3.23224c-0.0293307,0.0869764 -0.0898031,0.215189 -0.129378,0.297394l0.298441 0.0895748c0.0434094,-0.087748 0.0978504,-0.18785 0.136654,-0.307559l-0.305717 -0.0794094z"/>
  <path class="fil31 str4" d="M2.61564 3.31165c-0.0293307,0.0869764 -0.0948583,0.225205 -0.136654,0.307559l0.280425 0.0833071c0.0505748,-0.0816063 0.106142,-0.194315 0.15211,-0.314024l-0.295882 -0.0768425z"/>
  <path class="fil32 str4" d="M2.91152 3.38849c-0.0293307,0.0869764 -0.105512,0.232063 -0.15211,0.314024l0.323984 0.096252c0.0505748,-0.0816063 0.119646,-0.203465 0.156236,-0.326l-0.32811 -0.0842756z"/>
  <path class="fil33 str4" d="M3.23949 3.47313c-0.0293307,0.0869764 -0.109496,0.243669 -0.156094,0.32563l0.33126 0.0984016c0.0505748,-0.0816063 0.124976,-0.217157 0.170945,-0.336866l-0.34611 -0.0871654z"/>
  <polygon class="fil34 str4" points="4.09117,2.16002 4.09118,2.55807 4.45628,2.60704 4.45929,2.18945 "/>
  <path class="fil6 str1" d="M3.41931 4.24698c0.177992,0.067378 0.526299,0.142654 0.720417,0.138386 0.169551,-0.0722677 0.438094,-0.322142 0.55011,-0.525874"/>
  <path class="fil35 str1" d="M4.77895 1.46903c0.0521378,0 0.0944173,0.0439291 0.0944173,0.0980984l-0.188835 0c0,-0.0541693 0.0422795,-0.0980984 0.0944173,-0.0980984z"/>
  <polygon class="fil36 str4" points="4.09117,2.55807 4.09227,2.9405 4.45556,3.00433 4.45628,2.60704 "/>
  <polygon class="fil37 str4" points="3.73491,2.13155 3.7349,2.51028 4.09117,2.55807 4.09117,2.16002 "/>
  <polygon class="fil38 str4" points="3.7349,2.51028 3.7349,2.87769 4.09228,2.94049 4.09117,2.55807 "/>
  <polygon class="fil39 str4" points="3.38082,2.10324 3.38082,2.4628 3.73491,2.51029 3.73491,2.13155 "/>
  <polygon class="fil40 str4" points="3.38082,2.4628 3.38081,2.81547 3.7349,2.87769 3.7349,2.51028 "/>
  <polygon class="fil41 str4" points="3.0554,2.07723 3.0554,2.41915 3.38083,2.4628 3.38081,2.10324 "/>
  <polygon class="fil42 str4" points="3.0554,2.41915 3.0554,2.75828 3.38081,2.81548 3.38081,2.4628 "/>
  <polygon class="fil43 str4" points="2.74189,2.3771 2.74333,2.70343 3.0554,2.75828 3.05539,2.41915 "/>
  <path class="fil44 str4" d="M2.43235 2.33558l-0.00240945 0.312776 0.311957 0.0548228c0,-0.108697 0,-0.217394 0,-0.326087l-0.309547 -0.0415118z"/>
  <polygon class="fil45 str4" points="2.11719,2.2928 2.11672,2.59332 2.4323,2.64877 2.43234,2.33558 "/>
 </g>
</svg>
